<?xml version="1.0" encoding="UTF-8" standalone="no"?>
<svg width="24px" height="14px" viewBox="0 0 24 14" version="1.1" xmlns="http://www.w3.org/2000/svg" xmlns:xlink="http://www.w3.org/1999/xlink" xmlns:sketch="http://www.bohemiancoding.com/sketch/ns">
    <!-- Generator: Sketch 3.2.2 (9983) - http://www.bohemiancoding.com/sketch -->
    <title>group-add</title>
    <desc>Created with Sketch.</desc>
    <defs></defs>
    <g id="Page-1" stroke="none" stroke-width="1" fill="none" fill-rule="evenodd" sketch:type="MSPage">
        <g id="Icons-Social" sketch:type="MSLayerGroup" transform="translate(-41.000000, -46.000000)" fill="#3F51B5">
            <g id="group-add" transform="translate(41.000000, 46.500000)" sketch:type="MSShapeGroup">
                <path d="M8,5 L5,5 L5,2 L3,2 L3,5 L0,5 L0,7 L3,7 L3,10 L5,10 L5,7 L8,7 L8,5 L8,5 Z M18,6 C19.7,6 21,4.7 21,3 C21,1.3 19.7,0 18,0 C17.7,0 17.4,0.1 17.1,0.1 C17.7,1 18,1.9 18,3 C18,4.1 17.7,5 17.1,5.9 C17.4,5.9 17.7,6 18,6 L18,6 Z M13,6 C14.7,6 16,4.7 16,3 C16,1.3 14.7,0 13,0 C11.3,0 10,1.3 10,3 C10,4.7 11.3,6 13,6 L13,6 Z M19.6,8.2 C20.4,8.9 21,9.9 21,11 L21,13 L24,13 L24,11 C24,9.5 21.6,8.5 19.6,8.2 L19.6,8.2 Z M13,8 C11,8 7,9 7,11 L7,13 L19,13 L19,11 C19,9 15,8 13,8 L13,8 Z" id="Shape"></path>
            </g>
        </g>
    </g>
</svg>