<?xml version="1.0" encoding="UTF-8" standalone="no"?>
<svg width="20px" height="20px" viewBox="0 0 20 20" version="1.1" xmlns="http://www.w3.org/2000/svg" xmlns:xlink="http://www.w3.org/1999/xlink" xmlns:sketch="http://www.bohemiancoding.com/sketch/ns">
    <!-- Generator: Sketch 3.2.2 (9983) - http://www.bohemiancoding.com/sketch -->
    <title>public</title>
    <desc>Created with Sketch.</desc>
    <defs></defs>
    <g id="Page-1" stroke="none" stroke-width="1" fill="none" fill-rule="evenodd" sketch:type="MSPage">
        <g id="Icons-Social" sketch:type="MSLayerGroup" transform="translate(-43.000000, -211.000000)" fill="#000000">
            <g id="public" transform="translate(43.000000, 211.000000)" sketch:type="MSShapeGroup">
                <path d="M10,0 C4.5,0 0,4.5 0,10 C0,15.5 4.5,20 10,20 C15.5,20 20,15.5 20,10 C20,4.5 15.5,0 10,0 L10,0 Z M9,17.9 C5.1,17.4 2,14 2,10 C2,9.4 2.1,8.8 2.2,8.2 L7,13 L7,14 C7,15.1 7.9,16 9,16 L9,17.9 L9,17.9 Z M15.9,15.4 C15.6,14.6 14.9,14 14,14 L13,14 L13,11 C13,10.4 12.6,10 12,10 L6,10 L6,8 L8,8 C8.6,8 9,7.6 9,7 L9,5 L11,5 C12.1,5 13,4.1 13,3 L13,2.6 C15.9,3.8 18,6.7 18,10 C18,12.1 17.2,14 15.9,15.4 L15.9,15.4 Z" id="Shape"></path>
            </g>
        </g>
    </g>
</svg>