<?xml version="1.0" encoding="UTF-8" standalone="no"?>
<svg width="22px" height="14px" viewBox="0 0 22 14" version="1.1" xmlns="http://www.w3.org/2000/svg" xmlns:xlink="http://www.w3.org/1999/xlink" xmlns:sketch="http://www.bohemiancoding.com/sketch/ns">
    <!-- Generator: Sketch 3.2.2 (9983) - http://www.bohemiancoding.com/sketch -->
    <title>people</title>
    <desc>Created with Sketch.</desc>
    <defs></defs>
    <g id="Page-1" stroke="none" stroke-width="1" fill="none" fill-rule="evenodd" sketch:type="MSPage">
        <g id="Icons-Social" sketch:type="MSLayerGroup" transform="translate(-210.000000, -88.000000)" fill="#FFFFFF">
            <g id="people" transform="translate(210.000000, 88.000000)" sketch:type="MSShapeGroup">
                <path d="M15,6 C16.7,6 18,4.7 18,3 C18,1.3 16.7,0 15,0 C13.3,0 12,1.3 12,3 C12,4.7 13.3,6 15,6 L15,6 Z M7,6 C8.7,6 10,4.7 10,3 C10,1.3 8.7,0 7,0 C5.3,0 4,1.3 4,3 C4,4.7 5.3,6 7,6 L7,6 Z M7,8 C4.7,8 0,9.2 0,11.5 L0,14 L14,14 L14,11.5 C14,9.2 9.3,8 7,8 L7,8 Z M15,8 C14.7,8 14.4,8 14,8.1 C15.2,8.9 16,10.1 16,11.5 L16,14 L22,14 L22,11.5 C22,9.2 17.3,8 15,8 L15,8 Z" id="Shape"></path>
            </g>
        </g>
    </g>
</svg>