<?xml version="1.0" encoding="UTF-8" standalone="no"?>
<svg width="14px" height="20px" viewBox="0 0 14 20" version="1.1" xmlns="http://www.w3.org/2000/svg" xmlns:xlink="http://www.w3.org/1999/xlink" xmlns:sketch="http://www.bohemiancoding.com/sketch/ns">
    <!-- Generator: Sketch 3.2.2 (9983) - http://www.bohemiancoding.com/sketch -->
    <title>speaker</title>
    <desc>Created with Sketch.</desc>
    <defs></defs>
    <g id="Page-1" stroke="none" stroke-width="1" fill="none" fill-rule="evenodd" sketch:type="MSPage">
        <g id="Icons-Hardware" sketch:type="MSLayerGroup" transform="translate(-257.000000, -127.000000)" fill="#FFFFFF">
            <g id="speaker" transform="translate(257.000000, 127.000000)" sketch:type="MSShapeGroup">
                <path d="M12,0 L2,0 C0.9,0 0,0.9 0,2 L0,18 C0,19.1 0.9,20 2,20 L12,20 C13.1,20 14,19.1 14,18 L14,2 C14,0.9 13.1,0 12,0 L12,0 Z M7,2 C8.1,2 9,2.9 9,4 C9,5.1 8.1,6 7,6 C5.9,6 5,5.1 5,4 C5,2.9 5.9,2 7,2 L7,2 Z M7,18 C4.2,18 2,15.8 2,13 C2,10.2 4.2,8 7,8 C9.8,8 12,10.2 12,13 C12,15.8 9.8,18 7,18 L7,18 Z M7,10 C5.3,10 4,11.3 4,13 C4,14.7 5.3,16 7,16 C8.7,16 10,14.7 10,13 C10,11.3 8.7,10 7,10 L7,10 Z" id="Shape"></path>
            </g>
        </g>
    </g>
</svg>